<svg width="0" height="0" style="position:absolute">
	<defs>
		<svg viewBox="0 0 24 24" id="add" xmlns="http://www.w3.org/2000/svg">
			<path d="M0 0h24v24H0V0z" fill="none" />
			<path d="M19 13h-6v6h-2v-6H5v-2h6V5h2v6h6v2z" />
		</svg>
		<svg viewBox="0 0 24 24" id="analytics" xmlns="http://www.w3.org/2000/svg">
			<path d="M0 0h24v24H0z" fill="none" />
			<path d="M19 3H5c-1.1 0-2 .9-2 2v14c0 1.1.9 2 2 2h14c1.1 0 2-.9 2-2V5c0-1.1-.9-2-2-2zM9 17H7v-5h2v5zm4 0h-2v-3h2v3zm0-5h-2v-2h2v2zm4 5h-2V7h2v10z" />
		</svg>
		<svg viewBox="0 0 24 24" id="call" xmlns="http://www.w3.org/2000/svg">
			<path d="M0 0h24v24H0z" fill="none" />
			<path d="M20.01 15.38c-1.23 0-2.42-.2-3.53-.56a.977.977 0 00-1.01.24l-1.57 1.97c-2.83-1.35-5.48-3.9-6.89-6.83l1.95-1.66c.27-.28.35-.67.24-1.02-.37-1.11-.56-2.3-.56-3.53 0-.54-.45-.99-.99-.99H4.19C3.65 3 3 3.24 3 3.99 3 13.28 10.73 21 20.01 21c.71 0 .99-.63.99-1.18v-3.45c0-.54-.45-.99-.99-.99z" />
		</svg>
		<svg viewBox="0 0 24 24" id="chat" xmlns="http://www.w3.org/2000/svg">
			<path d="M0 0h24v24H0z" fill="none" />
			<path d="M20 2H4c-1.1 0-1.99.9-1.99 2L2 22l4-4h14c1.1 0 2-.9 2-2V4c0-1.1-.9-2-2-2zM6 9h12v2H6V9zm8 5H6v-2h8v2zm4-6H6V6h12v2z" />
		</svg>
		<svg viewBox="0 0 24 24" id="contactless" xmlns="http://www.w3.org/2000/svg">
			<path fill="none" d="M0 0h24v24H0z" />
			<path d="M12 2C6.48 2 2 6.48 2 12s4.48 10 10 10 10-4.48 10-10S17.52 2 12 2zM8.46 14.45l-1.36-.62c.28-.61.41-1.24.4-1.86a4.42 4.42 0 00-.4-1.8l1.36-.63c.35.75.53 1.56.54 2.4.01.86-.17 1.7-.54 2.51zm3.07 1.56l-1.3-.74c.52-.92.78-1.98.78-3.15 0-1.19-.27-2.33-.8-3.4l1.34-.67c.64 1.28.96 2.65.96 4.07 0 1.43-.33 2.74-.98 3.89zm3.14 1.32l-1.35-.66c.78-1.6 1.18-3.18 1.18-4.69 0-1.51-.4-3.07-1.18-4.64l1.34-.67c.9 1.78 1.34 3.56 1.34 5.31 0 1.74-.44 3.54-1.33 5.35z" />
		</svg>
		<svg viewBox="0 0 24 24" id="deck" xmlns="http://www.w3.org/2000/svg">
			<path fill="none" d="M0 0h24v24H0z" />
			<path d="M22 9L12 2 2 9h9v13h2V9z" />
			<path d="M4.14 12l-1.96.37.82 4.37V22h2l.02-4H7v4h2v-6H4.9zM19.1 16H15v6h2v-4h1.98l.02 4h2v-5.26l.82-4.37-1.96-.37z" />
		</svg>
		<svg viewBox="0 0 24 24" id="delete" xmlns="http://www.w3.org/2000/svg">
			<path d="M0 0h24v24H0V0z" fill="none" />
			<path d="M16 9v10H8V9h8m-1.5-6h-5l-1 1H5v2h14V4h-3.5l-1-1zM18 7H6v12c0 1.1.9 2 2 2h8c1.1 0 2-.9 2-2V7z" />
		</svg>
		<svg viewBox="0 0 24 24" id="email" xmlns="http://www.w3.org/2000/svg">
			<path d="M0 0h24v24H0z" fill="none" />
			<path d="M20 4H4c-1.1 0-1.99.9-1.99 2L2 18c0 1.1.9 2 2 2h16c1.1 0 2-.9 2-2V6c0-1.1-.9-2-2-2zm0 4l-8 5-8-5V6l8 5 8-5v2z" />
		</svg>
		<svg viewBox="0 0 24 24" id="fastfood" xmlns="http://www.w3.org/2000/svg">
			<path d="M0 0h24v24H0z" fill="none" />
			<path d="M18.06 22.99h1.66c.84 0 1.53-.64 1.63-1.46L23 5.05h-5V1h-1.97v4.05h-4.97l.3 2.34c1.71.47 3.31 1.32 4.27 2.26 1.44 1.42 2.43 2.89 2.43 5.29v8.05zM1 21.99V21h15.03v.99c0 .55-.45 1-1.01 1H2.01c-.56 0-1.01-.45-1.01-1zm15.03-7c0-8-15.03-8-15.03 0h15.03zM1.02 17h15v2h-15z" />
		</svg>
		<svg viewBox="0 0 24 24" id="fingerprint" xmlns="http://www.w3.org/2000/svg">
			<path d="M0 0h24v24H0z" fill="none" />
			<path d="M17.81 4.47c-.08 0-.16-.02-.23-.06C15.66 3.42 14 3 12.01 3c-1.98 0-3.86.47-5.57 1.41-.24.13-.54.04-.68-.2a.506.506 0 01.2-.68C7.82 2.52 9.86 2 12.01 2c2.13 0 3.99.47 6.03 1.52.25.13.34.43.21.67a.49.49 0 01-.44.28zM3.5 9.72a.499.499 0 01-.41-.79c.99-1.4 2.25-2.5 3.75-3.27C9.98 4.04 14 4.03 17.15 5.65c1.5.77 2.76 1.86 3.75 3.25a.5.5 0 01-.12.7c-.23.16-.54.11-.7-.12a9.388 9.388 0 00-3.39-2.94c-2.87-1.47-6.54-1.47-9.4.01-1.36.7-2.5 1.7-3.4 2.96-.08.14-.23.21-.39.21zm6.25 12.07a.47.47 0 01-.35-.15c-.87-.87-1.34-1.43-2.01-2.64-.69-1.23-1.05-2.73-1.05-4.34 0-2.97 2.54-5.39 5.66-5.39s5.66 2.42 5.66 5.39c0 .28-.22.5-.5.5s-.5-.22-.5-.5c0-2.42-2.09-4.39-4.66-4.39-2.57 0-4.66 1.97-4.66 4.39 0 1.44.32 2.77.93 3.85.64 1.15 1.08 1.64 1.85 2.42.19.2.19.51 0 .71-.11.1-.24.15-.37.15zm7.17-1.85c-1.19 0-2.24-.3-3.1-.89-1.49-1.01-2.38-2.65-2.38-4.39 0-.28.22-.5.5-.5s.5.22.5.5c0 1.41.72 2.74 1.94 3.56.71.48 1.54.71 2.54.71.24 0 .64-.03 1.04-.1.27-.05.53.13.58.41.05.27-.13.53-.41.58-.57.11-1.07.12-1.21.12zM14.91 22c-.04 0-.09-.01-.13-.02-1.59-.44-2.63-1.03-3.72-2.1a7.297 7.297 0 01-2.17-5.22c0-1.62 1.38-2.94 3.08-2.94 1.7 0 3.08 1.32 3.08 2.94 0 1.07.93 1.94 2.08 1.94s2.08-.87 2.08-1.94c0-3.77-3.25-6.83-7.25-6.83-2.84 0-5.44 1.58-6.61 4.03-.39.81-.59 1.76-.59 2.8 0 .78.07 2.01.67 3.61.1.26-.03.55-.29.64-.26.1-.55-.04-.64-.29a11.14 11.14 0 01-.73-3.96c0-1.2.23-2.29.68-3.24 1.33-2.79 4.28-4.6 7.51-4.6 4.55 0 8.25 3.51 8.25 7.83 0 1.62-1.38 2.94-3.08 2.94s-3.08-1.32-3.08-2.94c0-1.07-.93-1.94-2.08-1.94s-2.08.87-2.08 1.94c0 1.71.66 3.31 1.87 4.51.95.94 1.86 1.46 3.27 1.85.27.07.42.35.35.61-.05.23-.26.38-.47.38z" />
		</svg>
		<svg viewBox="0 0 24 24" id="flag" xmlns="http://www.w3.org/2000/svg">
			<path d="M0 0h24v24H0V0z" fill="none" />
			<path d="M12.36 6l.4 2H18v6h-3.36l-.4-2H7V6h5.36M14 4H5v17h2v-7h5.6l.4 2h7V6h-5.6L14 4z" />
		</svg>
		<svg viewBox="0 0 24 24" id="flight" xmlns="http://www.w3.org/2000/svg">
			<path d="M0 0h24v24H0z" fill="none" />
			<path d="M21 16v-2l-8-5V3.5c0-.83-.67-1.5-1.5-1.5S10 2.67 10 3.5V9l-8 5v2l8-2.5V19l-2 1.5V22l3.5-1 3.5 1v-1.5L13 19v-5.5l8 2.5z" />
		</svg>
		<svg viewBox="0 0 24 24" id="luggage" xmlns="http://www.w3.org/2000/svg">
			<path fill="none" d="M0 0h24v24H0z" />
			<path d="M17 6h-2V3c0-.55-.45-1-1-1h-4c-.55 0-1 .45-1 1v3H7c-1.1 0-2 .9-2 2v11c0 1.1.9 2 2 2 0 .55.45 1 1 1s1-.45 1-1h6c0 .55.45 1 1 1s1-.45 1-1c1.1 0 2-.9 2-2V8c0-1.1-.9-2-2-2zM9.5 18H8V9h1.5v9zm3.25 0h-1.5V9h1.5v9zm.75-12h-3V3.5h3V6zM16 18h-1.5V9H16v9z" />
		</svg>
		<svg viewBox="0 0 24 24" id="restaurant" xmlns="http://www.w3.org/2000/svg">
			<path d="M0 0h24v24H0z" fill="none" />
			<path d="M11 9H9V2H7v7H5V2H3v7c0 2.12 1.66 3.84 3.75 3.97V22h2.5v-9.03C11.34 12.84 13 11.12 13 9V2h-2v7zm5-3v8h2.5v8H21V2c-2.76 0-5 2.24-5 4z" />
		</svg>
		<svg viewBox="0 0 24 24" id="settings" xmlns="http://www.w3.org/2000/svg">
			<path d="M0 0h24v24H0V0z" fill="none" />
			<path d="M19.43 12.98c.04-.32.07-.64.07-.98 0-.34-.03-.66-.07-.98l2.11-1.65c.19-.15.24-.42.12-.64l-2-3.46a.5.5 0 00-.61-.22l-2.49 1c-.52-.4-1.08-.73-1.69-.98l-.38-2.65A.488.488 0 0014 2h-4c-.25 0-.46.18-.49.42l-.38 2.65c-.61.25-1.17.59-1.69.98l-2.49-1a.566.566 0 00-.18-.03c-.17 0-.34.09-.43.25l-2 3.46c-.13.22-.07.49.12.64l2.11 1.65c-.04.32-.07.65-.07.98 0 .33.03.66.07.98l-2.11 1.65c-.19.15-.24.42-.12.64l2 3.46a.5.5 0 00.61.22l2.49-1c.52.4 1.08.73 1.69.98l.38 2.65c.03.24.24.42.49.42h4c.25 0 .46-.18.49-.42l.38-2.65c.61-.25 1.17-.59 1.69-.98l2.49 1c.06.02.12.03.18.03.17 0 .34-.09.43-.25l2-3.46c.12-.22.07-.49-.12-.64l-2.11-1.65zm-1.98-1.71c.04.31.05.52.05.73 0 .21-.02.43-.05.73l-.14 1.13.89.7 1.08.84-.7 1.21-1.27-.51-1.04-.42-.9.68c-.43.32-.84.56-1.25.73l-1.06.43-.16 1.13-.2 1.35h-1.4l-.19-1.35-.16-1.13-1.06-.43c-.43-.18-.83-.41-1.23-.71l-.91-.7-1.06.43-1.27.51-.7-1.21 1.08-.84.89-.7-.14-1.13c-.03-.31-.05-.54-.05-.74s.02-.43.05-.73l.14-1.13-.89-.7-1.08-.84.7-1.21 1.27.51 1.04.42.9-.68c.43-.32.84-.56 1.25-.73l1.06-.43.16-1.13.2-1.35h1.39l.19 1.35.16 1.13 1.06.43c.43.18.83.41 1.23.71l.91.7 1.06-.43 1.27-.51.7 1.21-1.07.85-.89.7.14 1.13zM12 8c-2.21 0-4 1.79-4 4s1.79 4 4 4 4-1.79 4-4-1.79-4-4-4zm0 6c-1.1 0-2-.9-2-2s.9-2 2-2 2 .9 2 2-.9 2-2 2z" />
		</svg>
		<svg viewBox="0 0 24 24" id="train" xmlns="http://www.w3.org/2000/svg">
			<path d="M0 0h24v24H0V0z" fill="none" />
			<path d="M12 2c-4 0-8 .5-8 4v9.5C4 17.43 5.57 19 7.5 19L6 20.5v.5h2.23l2-2H14l2 2h2v-.5L16.5 19c1.93 0 3.5-1.57 3.5-3.5V6c0-3.5-3.58-4-8-4zM7.5 17c-.83 0-1.5-.67-1.5-1.5S6.67 14 7.5 14s1.5.67 1.5 1.5S8.33 17 7.5 17zm3.5-7H6V6h5v4zm2 0V6h5v4h-5zm3.5 7c-.83 0-1.5-.67-1.5-1.5s.67-1.5 1.5-1.5 1.5.67 1.5 1.5-.67 1.5-1.5 1.5z" />
		</svg>
		<svg viewBox="0 0 24 24" id="view_carousel" xmlns="http://www.w3.org/2000/svg">
			<path d="M0 0h24v24H0z" fill="none" />
			<path d="M7 19h10V4H7v15zm-5-2h4V6H2v11zM18 6v11h4V6h-4z" />
		</svg>
	</defs>
</svg>
